<svg width="78" height="78" viewBox="0 0 78 78" fill="none" xmlns="http://www.w3.org/2000/svg">
<rect x="0.5" y="0.5" width="77" height="77" rx="38.5" stroke="black"/>
<path fill-rule="evenodd" clip-rule="evenodd" d="M34.625 29.375L47.75 29.375C47.9821 29.375 48.2046 29.4672 48.3687 29.6313C48.5328 29.7954 48.625 30.0179 48.625 30.25V43.375C48.625 43.8582 48.2332 44.25 47.75 44.25C47.2668 44.25 46.875 43.8582 46.875 43.375V32.3624L30.8687 48.3687C30.527 48.7104 29.973 48.7104 29.6313 48.3687C29.2896 48.027 29.2896 47.473 29.6313 47.1313L45.6376 31.125L34.625 31.125C34.1417 31.125 33.75 30.7332 33.75 30.25C33.75 29.7668 34.1417 29.375 34.625 29.375Z" fill="black"/>
</svg>
