<svg width="36" height="36" viewBox="0 0 36 36" fill="none" xmlns="http://www.w3.org/2000/svg">
<rect x="0.5" y="0.5" width="35" height="35" rx="17.5" stroke="white" stroke-opacity="0.2"/>
<path d="M12.0739 22V14.3636H13.2074V15.517H13.2869C13.4261 15.1392 13.678 14.8326 14.0426 14.5973C14.4072 14.362 14.8182 14.2443 15.2756 14.2443C15.3617 14.2443 15.4695 14.246 15.5987 14.2493C15.728 14.2526 15.8258 14.2576 15.892 14.2642V15.4574C15.8523 15.4474 15.7611 15.4325 15.6186 15.4126C15.4794 15.3894 15.3319 15.3778 15.1761 15.3778C14.8049 15.3778 14.4735 15.4557 14.1818 15.6115C13.8935 15.764 13.6648 15.9761 13.4957 16.2479C13.33 16.5163 13.2472 16.8229 13.2472 17.1676V22H12.0739ZM22.0953 18.8778V14.3636H23.2686V22H22.0953V20.7074H22.0158C21.8368 21.0952 21.5584 21.425 21.1806 21.6967C20.8027 21.9652 20.3255 22.0994 19.7488 22.0994C19.2715 22.0994 18.8472 21.995 18.476 21.7862C18.1048 21.5741 17.8132 21.2559 17.601 20.8317C17.3889 20.4041 17.2828 19.8655 17.2828 19.2159V14.3636H18.4561V19.1364C18.4561 19.6932 18.6119 20.1373 18.9235 20.4688C19.2383 20.8002 19.6394 20.9659 20.1266 20.9659C20.4183 20.9659 20.7149 20.8913 21.0165 20.7422C21.3214 20.593 21.5766 20.3643 21.7821 20.0561C21.9909 19.7479 22.0953 19.3551 22.0953 18.8778Z" fill="white"/>
</svg>
