<?xml version="1.0" encoding="UTF-8" standalone="no"?>
<svg
   xmlns:dc="http://purl.org/dc/elements/1.1/"
   xmlns:cc="http://creativecommons.org/ns#"
   xmlns:rdf="http://www.w3.org/1999/02/22-rdf-syntax-ns#"
   xmlns:svg="http://www.w3.org/2000/svg"
   xmlns="http://www.w3.org/2000/svg"
   viewBox="0 0 1587.4 881.87201"
   height="881.87201"
   width="1587.4"
   xml:space="preserve"
   id="svg2"
   version="1.1"><metadata
     id="metadata8"><rdf:RDF><cc:Work
         rdf:about=""><dc:format>image/svg+xml</dc:format><dc:type
           rdf:resource="http://purl.org/dc/dcmitype/StillImage" /></cc:Work></rdf:RDF></metadata><defs
     id="defs6"><clipPath
       id="clipPath18"
       clipPathUnits="userSpaceOnUse"><path
         id="path16"
         d="M 0,661.404 H 1190.551 V 0 H 0 Z" /></clipPath></defs><g
     transform="matrix(1.3333333,0,0,-1.3333333,0,881.872)"
     id="g10"><g
       id="g12"><g
         clip-path="url(#clipPath18)"
         id="g14"><g
           transform="translate(870.5797,319.3192)"
           id="g20"><path
             id="path22"
             style="fill:#231f20;fill-opacity:1;fill-rule:nonzero;stroke:none"
             d="m 0,0 c 2.51,0.421 6.111,1.274 10.08,3.171 10.805,5.16 16.023,14.064 17.884,17.341 6.687,11.775 6.007,23.16 5.642,29.263 -0.491,8.217 -1.2,19.432 -9.326,28.617 C 13.986,90.025 -0.482,90.947 -3.685,91.074 L -38.804,90.965 C -38.796,60.651 -38.787,30.336 -38.78,0.02 -25.853,0.014 -12.927,0.006 0,0 M 63.595,-68.785 H 39.723 L 0.095,-1.6 H -38.818 V -68.785 H -60.542 V 92.818 h 59.204 c 42.972,0 55.863,-21.873 55.863,-43.972 0,-24.33 -13.369,-38.615 -33.423,-45.089 z" /></g><g
           transform="translate(295.1926,275.2243)"
           id="g24"><path
             id="path26"
             style="fill:#040606;fill-opacity:1;fill-rule:nonzero;stroke:none"
             d="m 0,0 c 3.561,-5.914 7.861,-11.305 14.53,-15.682 3.667,-2.406 11.695,-7.522 22.982,-7.349 9.978,0.154 17.048,4.358 20.673,6.576 5.149,3.151 10.648,7.929 15.861,16.455 11.523,18.843 11.789,39.864 11.815,56.112 0.027,17.561 -0.176,37.543 -11.604,55.664 -4.933,7.823 -10.142,12.419 -14.604,15.448 -4.156,2.819 -12.197,8.275 -23.847,8.338 -10.745,0.06 -18.361,-4.503 -20.698,-5.946 C 7.508,124.927 3.367,118.674 0,112.226 -13.514,86.338 -13.915,58.489 -13.924,56.337 -13.971,46.229 -12.939,21.479 0,0 m -16.033,115.142 c 15.189,14.59 28.901,21.771 51.685,21.771 22.783,0 36.918,-7.181 52.107,-21.546 15.4,-14.364 22.994,-34.117 22.994,-59.03 0,-24.24 -7.383,-43.768 -21.94,-58.583 -14.767,-15.037 -28.902,-22.444 -52.95,-22.444 -23.206,0 -37.339,7.407 -52.318,22.444 -14.768,14.815 -22.361,34.791 -22.361,59.479 0,24.017 7.593,43.321 22.783,57.909" /></g><g
           transform="translate(553.1132,408.7489)"
           id="g28"><path
             id="path30"
             style="fill:#040606;fill-opacity:1;fill-rule:nonzero;stroke:none"
             d="m 0,0 h -63.338 c 0.018,-38.523 0.035,-77.046 0.051,-115.57 v -42.644 h -21.94 v 42.644 c -0.026,38.534 -0.051,77.067 -0.076,115.6 h -62.358 c -0.004,1.12 -0.007,2.239 -0.01,3.358 L 0,3.388 Z" /></g><g
           transform="translate(693.6799,412.1375)"
           id="g32"><path
             id="path34"
             style="fill:#040606;fill-opacity:1;fill-rule:nonzero;stroke:none"
             d="m 0,0 v -161.603 h -21.939 c 0.018,27.625 0.035,55.252 0.053,82.878 h -80.972 c -0.029,-27.626 -0.059,-55.253 -0.09,-82.878 h -21.94 V 0 h 21.94 c 0.036,-25.163 0.071,-50.325 0.105,-75.488 26.982,0.005 53.963,0.011 80.943,0.016 -0.013,25.158 -0.026,50.315 -0.039,75.472 z" /></g><path
           id="path36"
           style="fill:#040606;fill-opacity:1;fill-rule:nonzero;stroke:none"
           d="m 793.313,407.923 h -84.68 v 3.865 h 84.68 z" /><path
           id="path38"
           style="fill:#040606;fill-opacity:1;fill-rule:nonzero;stroke:none"
           d="m 791.932,250.884 h -84.68 v 3.865 h 84.68 z" /></g></g></g></svg>