<svg width="105" height="41" viewBox="0 0 105 41" fill="none" xmlns="http://www.w3.org/2000/svg">
<path d="M21.6578 18.8802C21.758 18.8802 21.8087 18.9412 21.8087 19.0625C21.8087 19.1839 21.758 19.2442 21.6578 19.2442C21.2757 19.2442 20.6624 19.2243 19.8179 19.1839C18.9727 19.1434 18.3594 19.1229 17.9779 19.1229C17.4747 19.1229 16.8817 19.1434 16.1979 19.1839C15.5141 19.2243 14.9812 19.2442 14.5991 19.2442C14.5187 19.2442 14.4785 19.1839 14.4785 19.0625C14.4785 18.9412 14.5187 18.8802 14.5991 18.8802C15.1821 18.8802 15.6097 18.8146 15.8811 18.6827C16.1525 18.5514 16.2882 18.334 16.2882 18.0304C16.2882 17.7268 16.1176 17.211 15.7757 16.4824L13.4831 11.8075H6.18329L4.7359 15.0863C4.47438 15.6929 4.34333 16.2392 4.34333 16.7251C4.34333 17.4331 4.59495 17.9694 5.0976 18.334C5.60026 18.698 6.30444 18.8802 7.20898 18.8802C7.30975 18.8802 7.35984 18.9412 7.35984 19.0625C7.35984 19.1839 7.30975 19.2442 7.20898 19.2442C6.84728 19.2442 6.32424 19.2243 5.64045 19.1839C4.87627 19.1434 4.21286 19.1229 3.64963 19.1229C3.10679 19.1229 2.47367 19.1434 1.74968 19.1839C1.10607 19.2243 0.573132 19.2442 0.150856 19.2442C0.0500923 19.2442 0 19.1839 0 19.0625C0 18.9412 0.0500923 18.8802 0.150856 18.8802C0.714085 18.8802 1.18645 18.7689 1.56854 18.5462C1.95063 18.324 2.32281 17.9243 2.68451 17.3475C3.0468 16.7708 3.47898 15.9156 3.98163 14.7826L10.4666 0.0908522C10.5068 0.0304813 10.5977 0 10.7381 0C10.879 0 10.9594 0.0304813 10.9798 0.0908522L18.3699 15.0863C19.0735 16.5428 19.6618 17.5398 20.1341 18.0761C20.6071 18.6118 21.1144 18.8802 21.6578 18.8802ZM6.51529 11.049H13.1214L9.65236 3.97627L6.51529 11.049Z" fill="white"/>
<path d="M41.4448 18.8802C41.5054 18.8802 41.5357 18.9412 41.5357 19.0625C41.5357 19.1839 41.5054 19.2442 41.4448 19.2442H38.0666L36.89 19.2747C36.6087 19.2747 36.3676 19.2143 36.1666 19.0924C35.9651 18.9711 35.7339 18.749 35.4729 18.4248C35.2114 18.1013 34.7286 17.4636 34.025 16.5123L32.7879 14.843L28.5954 9.31879L27.8411 10.1077V16.786C27.8411 17.4132 27.8918 17.8686 27.992 18.1517C28.0927 18.4348 28.2989 18.627 28.6105 18.7284C28.9221 18.8298 29.4196 18.8802 30.1033 18.8802C30.1837 18.8802 30.2239 18.9412 30.2239 19.0625C30.2239 19.1839 30.1837 19.2442 30.1033 19.2442C29.4597 19.2442 28.9472 19.2343 28.5651 19.2143L26.3634 19.1839L24.2218 19.2143C23.8397 19.2343 23.3067 19.2442 22.6229 19.2442C22.5828 19.2442 22.5624 19.1839 22.5624 19.0625C22.5624 18.9412 22.5828 18.8802 22.6229 18.8802C23.3067 18.8802 23.8041 18.8298 24.1158 18.7284C24.428 18.627 24.644 18.4301 24.7646 18.1365C24.8852 17.8434 24.9452 17.3927 24.9452 16.786V2.73193C24.9452 2.1247 24.8904 1.67983 24.7798 1.39615C24.6691 1.11305 24.453 0.915525 24.1309 0.804161C23.8094 0.692798 23.3166 0.637117 22.6532 0.637117C22.613 0.637117 22.5927 0.576748 22.5927 0.45542C22.5927 0.334092 22.613 0.273136 22.6532 0.273136L24.2515 0.303616C25.1368 0.344058 25.8404 0.363981 26.3634 0.363981C26.9663 0.363981 27.7106 0.344058 28.5954 0.303616L30.1033 0.273136C30.1639 0.273136 30.1942 0.334092 30.1942 0.45542C30.1942 0.576748 30.1639 0.637117 30.1033 0.637117C29.4399 0.637117 28.9524 0.698073 28.6402 0.819401C28.3286 0.940729 28.1178 1.14822 28.0071 1.44187C27.8964 1.73493 27.8411 2.18566 27.8411 2.7923V9.19747L33.7536 3.18735C34.3768 2.55961 34.6884 2.03385 34.6884 1.60891C34.6884 1.3053 34.5323 1.06733 34.2207 0.8956C33.9091 0.723279 33.4518 0.637117 32.8484 0.637117C32.8082 0.637117 32.7879 0.576748 32.7879 0.45542C32.7879 0.334092 32.8082 0.273136 32.8484 0.273136L34.2055 0.303616C35.0903 0.344058 35.8952 0.363981 36.6186 0.363981C37.4032 0.363981 38.1977 0.344058 39.002 0.303616L40.2991 0.273136C40.3591 0.273136 40.3894 0.334092 40.3894 0.45542C40.3894 0.576748 40.3591 0.637117 40.2991 0.637117C39.4138 0.637117 38.444 0.880362 37.388 1.36567C36.3321 1.85157 35.3722 2.51916 34.5073 3.36904L30.6462 7.25447L35.0804 13.1737C36.448 15.0558 37.4783 16.3863 38.1726 17.1652C38.8663 17.9442 39.4138 18.4248 39.8163 18.6071C40.2182 18.7894 40.7616 18.8802 41.4448 18.8802Z" fill="white"/>
<path d="M63.9472 18.8802C64.0078 18.8802 64.038 18.9412 64.038 19.0625C64.038 19.1839 64.0078 19.2442 63.9472 19.2442H59.0907C58.6283 19.2442 57.7686 18.4348 56.5116 16.8159C55.2553 15.197 53.7316 12.9311 51.9423 10.0169C51.4996 10.0573 51.1577 10.0772 50.9166 10.0772C50.4739 10.0772 49.9515 10.0573 49.3481 10.0169V16.786C49.3481 17.4132 49.4034 17.8686 49.5141 18.1517C49.6247 18.4348 49.8356 18.627 50.1472 18.7284C50.4588 18.8298 50.9568 18.8802 51.6406 18.8802C51.6808 18.8802 51.7006 18.9412 51.7006 19.0625C51.7006 19.1839 51.6808 19.2442 51.6406 19.2442C50.9766 19.2442 50.4641 19.2343 50.1023 19.2143L47.8698 19.1839L45.6984 19.2143C45.3164 19.2343 44.7933 19.2442 44.1299 19.2442C44.0693 19.2442 44.039 19.1839 44.039 19.0625C44.039 18.9412 44.0693 18.8802 44.1299 18.8802C44.8131 18.8802 45.3111 18.8298 45.6227 18.7284C45.9343 18.627 46.1504 18.4301 46.271 18.1365C46.3921 17.8434 46.4521 17.3927 46.4521 16.786V2.73193C46.4521 2.1247 46.3968 1.67983 46.2861 1.39615C46.1761 1.11305 45.9594 0.915525 45.6379 0.804161C45.3164 0.692798 44.8236 0.637117 44.1596 0.637117C44.1194 0.637117 44.0996 0.576748 44.0996 0.45542C44.0996 0.334092 44.1194 0.273136 44.1596 0.273136L45.7281 0.303616C46.6129 0.344058 47.327 0.363981 47.8698 0.363981C48.5338 0.363981 49.2572 0.334093 50.0418 0.273136C50.3033 0.252622 50.6201 0.232691 50.9917 0.212177C51.3639 0.192249 51.781 0.182284 52.2434 0.182284C53.9931 0.182284 55.3456 0.526338 56.3008 1.21386C57.256 1.90197 57.7336 2.86322 57.7336 4.0976C57.7336 5.21065 57.4267 6.21234 56.8133 7.10266C56.2 7.99298 55.3805 8.70161 54.3554 9.22736C56.0043 11.6762 57.3818 13.5887 58.4879 14.9643C59.5934 16.3406 60.5742 17.337 61.4287 17.9542C62.2831 18.5714 63.123 18.8802 63.9472 18.8802ZM49.3481 9.19747C49.8303 9.27835 50.414 9.31879 51.0972 9.31879C52.4048 9.31879 53.3396 8.98998 53.9028 8.33235C54.4661 7.67472 54.7474 6.61735 54.7474 5.16024C54.7474 3.52085 54.4707 2.37791 53.918 1.73024C53.3647 1.08257 52.5655 0.759028 51.52 0.759028C50.7355 0.759028 50.1775 0.90556 49.8455 1.19921C49.5141 1.49227 49.3481 2.0233 49.3481 2.7923V9.19747Z" fill="white"/>
<path d="M79.8434 0.273136C79.904 0.273136 79.9343 0.334092 79.9343 0.45542C79.9343 0.576748 79.904 0.637117 79.8434 0.637117C79.1194 0.637117 78.456 0.910837 77.8526 1.4571C77.2498 2.00337 76.757 2.7923 76.3749 3.82446L70.523 19.2143C70.5027 19.2952 70.392 19.3357 70.191 19.3357C69.9901 19.3357 69.8794 19.2952 69.8596 19.2143L62.2278 2.7923C61.8661 2.04382 61.5038 1.49755 61.1421 1.1535C60.7798 0.809441 60.3476 0.637117 59.845 0.637117C59.7844 0.637117 59.7547 0.576748 59.7547 0.45542C59.7547 0.334092 59.7844 0.273136 59.845 0.273136L60.6295 0.303616C61.0716 0.344058 61.5743 0.363981 62.1375 0.363981C63.5453 0.363981 64.8121 0.344058 65.938 0.303616C66.2601 0.283101 66.6719 0.273136 67.1745 0.273136C67.2351 0.273136 67.2654 0.334092 67.2654 0.45542C67.2654 0.576748 67.2351 0.637117 67.1745 0.637117C65.9077 0.637117 65.2746 1.08257 65.2746 1.9729C65.2746 2.31695 65.3748 2.70145 65.5763 3.12639L71.1865 15.2076L75.5904 3.70314C75.7715 3.21724 75.8618 2.78234 75.8618 2.39784C75.8618 1.83106 75.676 1.39615 75.3038 1.09254C74.9322 0.788925 74.3736 0.637117 73.6298 0.637117C73.5698 0.637117 73.5396 0.576748 73.5396 0.45542C73.5396 0.334092 73.5698 0.273136 73.6298 0.273136L75.0778 0.303616C75.842 0.344058 76.5456 0.363981 77.1892 0.363981C77.5713 0.363981 78.0436 0.344058 78.6069 0.303616L79.8434 0.273136Z" fill="white"/>
<path d="M104.94 18.8802C104.98 18.8802 105 18.9412 105 19.0625C105 19.1839 104.98 19.2442 104.94 19.2442C104.276 19.2442 103.743 19.2343 103.341 19.2143L101.169 19.1839L99.0578 19.2143C98.6961 19.2343 98.183 19.2442 97.5196 19.2442C97.4794 19.2442 97.459 19.1839 97.459 19.0625C97.459 18.9412 97.4794 18.8802 97.5196 18.8802C98.4043 18.8802 98.9979 18.7788 99.299 18.5766C99.6007 18.3744 99.7515 17.9495 99.7515 17.3018L99.7213 16.786L99.1184 3.9159L92.6934 19.032C92.6532 19.1129 92.5729 19.1534 92.4523 19.1534C92.3515 19.1534 92.2612 19.1129 92.1809 19.032L84.6393 4.03723L84.3679 15.5716C84.3481 16.6442 84.5543 17.4636 84.9864 18.0304C85.4186 18.5971 86.0675 18.8802 86.9318 18.8802C86.9924 18.8802 87.0227 18.9412 87.0227 19.0625C87.0227 19.1839 86.9924 19.2442 86.9318 19.2442C86.389 19.2442 85.9667 19.2343 85.665 19.2143L84.0062 19.1839L82.2268 19.2143C81.9251 19.2343 81.5028 19.2442 80.9594 19.2442C80.8994 19.2442 80.8691 19.1839 80.8691 19.0625C80.8691 18.9412 80.8994 18.8802 80.9594 18.8802C81.7841 18.8802 82.4225 18.5971 82.8751 18.0304C83.3276 17.4636 83.5635 16.6442 83.5839 15.5716L83.8553 2.51916C83.4936 1.87208 83.0964 1.39615 82.6636 1.09254C82.2314 0.788925 81.734 0.637117 81.1708 0.637117C81.1102 0.637117 81.0805 0.576748 81.0805 0.45542C81.0805 0.334092 81.1102 0.273136 81.1708 0.273136L82.4679 0.303616C82.7294 0.323544 83.0713 0.334088 83.4936 0.334088L84.9113 0.303616C85.0721 0.283101 85.273 0.273136 85.5141 0.273136C85.7757 0.273136 85.9871 0.369256 86.1478 0.561505C86.3086 0.753754 86.5602 1.18397 86.9021 1.85157L93.538 14.8735L99.5407 1.03216C99.6613 0.74848 99.7917 0.551544 99.9327 0.44018C100.074 0.328816 100.244 0.273136 100.445 0.273136C100.586 0.273136 100.767 0.283101 100.989 0.303616C101.209 0.323544 101.481 0.334088 101.803 0.334088L103.431 0.303616C103.693 0.283101 104.085 0.273136 104.608 0.273136C104.648 0.273136 104.669 0.334092 104.669 0.45542C104.669 0.576748 104.648 0.637117 104.608 0.637117C103.643 0.637117 102.944 0.814124 102.512 1.16873C102.079 1.52275 101.883 2.10477 101.923 2.91421L102.587 16.786C102.627 17.4132 102.707 17.8686 102.829 18.1517C102.949 18.4348 103.16 18.627 103.462 18.7284C103.763 18.8298 104.256 18.8802 104.94 18.8802Z" fill="white"/>
<path d="M70.8644 6.60973C71.9291 6.60973 72.7923 5.74113 72.7923 4.66966C72.7923 3.59818 71.9291 2.72958 70.8644 2.72958C69.7996 2.72958 68.9364 3.59818 68.9364 4.66966C68.9364 5.74113 69.7996 6.60973 70.8644 6.60973Z" fill="white"/>
<path d="M29.3444 36.5361C30.0253 36.6175 30.5658 36.8456 30.9671 37.2207C31.3678 37.5958 31.5688 38.0606 31.5688 38.6151C31.5688 39.0388 31.4471 39.4222 31.2042 39.7645C30.9607 40.1068 30.6246 40.3781 30.1954 40.578C29.7655 40.7779 29.2879 40.8775 28.7614 40.8775C28.5342 40.8775 28.275 40.8652 27.9832 40.8406C27.8697 40.8324 27.7304 40.8247 27.5639 40.8165C27.3979 40.8083 27.2138 40.8042 27.0111 40.8042L26.124 40.8165C25.9615 40.8247 25.7431 40.8283 25.4676 40.8283C25.4432 40.8283 25.4309 40.8042 25.4309 40.755C25.4309 40.7063 25.4432 40.6817 25.4676 40.6817C25.7024 40.6817 25.8806 40.6595 26.0023 40.6143C26.124 40.5698 26.2108 40.4883 26.2638 40.3699C26.3163 40.2515 26.3425 40.0745 26.3425 39.8377V34.1752C26.3425 33.8329 26.286 33.6066 26.1724 33.497C26.0588 33.3868 25.8282 33.3317 25.4799 33.3317C25.4636 33.3317 25.4554 33.3071 25.4554 33.2585C25.4554 33.2092 25.4636 33.1846 25.4799 33.1846L26.124 33.1969C26.4968 33.2133 26.7921 33.2215 27.0111 33.2215C27.2377 33.2215 27.473 33.2092 27.7159 33.1846C27.7968 33.1764 27.9186 33.1688 28.0805 33.1606C28.2424 33.1524 28.3845 33.1483 28.5057 33.1483C29.2431 33.1483 29.8145 33.2825 30.2193 33.5515C30.6246 33.8206 30.8273 34.2121 30.8273 34.7261C30.8273 35.1171 30.6998 35.4717 30.4441 35.7899C30.189 36.1076 29.8226 36.3567 29.3444 36.5361ZM28.3234 33.4173C28.0887 33.4173 27.9267 33.4724 27.8376 33.5826C27.7485 33.6922 27.7037 33.8985 27.7037 34.1998V36.5238L28.19 36.5361C28.6111 36.5361 28.9355 36.3766 29.1621 36.059C29.3893 35.7407 29.5023 35.3333 29.5023 34.8357C29.5023 34.3709 29.4015 34.0187 29.1988 33.7778C28.9961 33.5375 28.7043 33.4173 28.3234 33.4173ZM28.5546 40.5715C29.6158 40.5715 30.1465 40.0171 30.1465 38.9087C30.1465 38.2804 29.9968 37.7833 29.6968 37.4164C29.3974 37.0495 28.9437 36.8661 28.3356 36.8661C28.1009 36.8661 27.89 36.8743 27.7037 36.8907V39.8377C27.7037 40.1068 27.7567 40.2967 27.8615 40.4068C27.9669 40.5164 28.1982 40.5715 28.5546 40.5715Z" fill="white"/>
<path d="M40.5344 34.7502C40.5344 34.31 40.4348 33.9636 40.2362 33.711C40.0382 33.4577 39.7604 33.3317 39.4039 33.3317C39.3876 33.3317 39.3794 33.3071 39.3794 33.2585C39.3794 33.2092 39.3876 33.1846 39.4039 33.1846L39.9875 33.1969C40.2951 33.2133 40.5426 33.2215 40.729 33.2215C40.8827 33.2215 41.1052 33.2133 41.397 33.1969L41.9562 33.1846C41.9725 33.1846 41.9807 33.2092 41.9807 33.2585C41.9807 33.3071 41.9725 33.3317 41.9562 33.3317C41.6399 33.3317 41.393 33.4577 41.2147 33.711C41.0365 33.9636 40.9474 34.31 40.9474 34.7502V38.1503C40.9474 38.7211 40.8222 39.2223 40.5706 39.6543C40.3195 40.0868 39.9654 40.4186 39.5076 40.6513C39.0498 40.8834 38.5209 41 37.9216 41C37.3217 41 36.791 40.8857 36.3292 40.6571C35.8673 40.4291 35.505 40.0968 35.2417 39.6607C34.9785 39.2246 34.8468 38.7129 34.8468 38.1256V34.1752C34.8468 33.9307 34.8241 33.7514 34.7798 33.6371C34.735 33.5234 34.654 33.4437 34.5364 33.3991C34.4193 33.354 34.2347 33.3317 33.9836 33.3317C33.9592 33.3317 33.9475 33.3071 33.9475 33.2585C33.9475 33.2092 33.9592 33.1846 33.9836 33.1846L34.6278 33.1969C35.0006 33.2133 35.2965 33.2215 35.5149 33.2215C35.7578 33.2215 36.0659 33.2133 36.4387 33.1969L37.0584 33.1846C37.0828 33.1846 37.0951 33.2092 37.0951 33.2585C37.0951 33.3071 37.0828 33.3317 37.0584 33.3317C36.8073 33.3317 36.6227 33.3564 36.5056 33.405C36.388 33.4537 36.307 33.5375 36.2622 33.6559C36.2179 33.7743 36.1958 33.9554 36.1958 34.1998V37.6978C36.1958 38.6678 36.3862 39.3852 36.7666 39.85C37.1475 40.3148 37.6863 40.5475 38.3829 40.5475C39.0556 40.5475 39.5821 40.3412 39.9631 39.9297C40.344 39.5177 40.5344 38.9286 40.5344 38.1626V34.7502Z" fill="white"/>
<path d="M52.1374 40.6817C52.1537 40.6817 52.1613 40.7063 52.1613 40.755C52.1613 40.8042 52.1537 40.8283 52.1374 40.8283H49.9742C49.796 40.8283 49.4634 40.5047 48.9776 39.8565C48.4913 39.2082 47.9036 38.3009 47.2151 37.1351C47.1505 37.1433 47.0573 37.1474 46.9356 37.1474C46.6199 37.1474 46.3968 37.1433 46.2675 37.1351V39.8377C46.2675 40.0909 46.2873 40.2744 46.3281 40.3881C46.3688 40.5024 46.4475 40.5798 46.5651 40.6208C46.6828 40.6612 46.8709 40.6817 47.1301 40.6817C47.1464 40.6817 47.1546 40.7063 47.1546 40.755C47.1546 40.8042 47.1464 40.8283 47.1301 40.8283C46.8628 40.8283 46.6519 40.8247 46.4981 40.8165L45.5744 40.8042L44.6873 40.8165C44.5254 40.8247 44.3064 40.8283 44.0309 40.8283C44.007 40.8283 43.9948 40.8042 43.9948 40.755C43.9948 40.7063 44.007 40.6817 44.0309 40.6817C44.2901 40.6817 44.4788 40.6612 44.5964 40.6208C44.7135 40.5798 44.7945 40.5006 44.8393 40.3822C44.8836 40.2638 44.9063 40.0827 44.9063 39.8377V34.1752C44.9063 33.9307 44.8859 33.7514 44.8452 33.6371C44.805 33.5234 44.724 33.4437 44.6023 33.3991C44.4805 33.354 44.2942 33.3317 44.0431 33.3317C44.0268 33.3317 44.0187 33.3071 44.0187 33.2585C44.0187 33.2092 44.0268 33.1846 44.0431 33.1846L44.6873 33.1969C45.0601 33.2133 45.356 33.2215 45.5744 33.2215C45.8499 33.2215 46.1376 33.2092 46.4376 33.1846C46.543 33.1764 46.6746 33.1688 46.8325 33.1606C46.9903 33.1524 47.1668 33.1483 47.3613 33.1483C48.0981 33.1483 48.6695 33.2848 49.0749 33.558C49.4797 33.8311 49.6824 34.2121 49.6824 34.7015C49.6824 35.1499 49.5607 35.5555 49.3178 35.9183C49.0749 36.2811 48.7505 36.5724 48.3457 36.7928C48.9939 37.771 49.5362 38.5377 49.9742 39.0922C50.4116 39.646 50.8007 40.0499 51.1409 40.3025C51.481 40.5551 51.813 40.6817 52.1374 40.6817ZM46.2675 36.7928C46.4614 36.825 46.6968 36.8414 46.9723 36.8414C47.4423 36.8414 47.7801 36.709 47.9869 36.4441C48.1937 36.1791 48.2968 35.753 48.2968 35.1663C48.2968 34.4975 48.1995 34.0368 48.0049 33.7842C47.811 33.5316 47.5314 33.405 47.1668 33.405C46.8424 33.405 46.6117 33.466 46.4737 33.5885C46.3362 33.711 46.2675 33.9143 46.2675 34.1998V36.7928Z" fill="white"/>
<path d="M59.4379 38.8841C59.4379 38.8677 59.4542 38.8595 59.4868 38.8595C59.5107 38.8595 59.5334 38.8659 59.5538 38.8776C59.5736 38.89 59.584 38.9005 59.584 38.9087C59.5031 39.5447 59.4623 40.1232 59.4623 40.6448C59.4623 40.7105 59.4501 40.7573 59.4256 40.7855C59.4017 40.8142 59.3528 40.8283 59.28 40.8283H53.9081C53.8842 40.8283 53.872 40.8042 53.872 40.755C53.872 40.7063 53.8842 40.6817 53.9081 40.6817C54.1673 40.6817 54.356 40.6612 54.4736 40.6208C54.5907 40.5798 54.6699 40.5006 54.7101 40.3822C54.7509 40.2638 54.7713 40.0827 54.7713 39.8377V34.1752C54.7713 33.9307 54.7509 33.7514 54.7101 33.6371C54.6699 33.5234 54.589 33.4437 54.4672 33.3991C54.3461 33.354 54.1597 33.3317 53.9081 33.3317C53.8842 33.3317 53.872 33.3071 53.872 33.2585C53.872 33.2092 53.8842 33.1846 53.9081 33.1846H59.061C59.1426 33.1846 59.1827 33.2215 59.1827 33.2948L59.2072 34.9213C59.2072 34.9377 59.1851 34.95 59.1402 34.9582C59.096 34.9664 59.0692 34.9582 59.061 34.9336C58.9317 34.4606 58.7127 34.1101 58.4052 33.8821C58.0971 33.6535 57.6922 33.5398 57.1896 33.5398H56.825C56.5821 33.5398 56.4039 33.5926 56.2903 33.6986C56.1767 33.8047 56.1202 33.9677 56.1202 34.1875V36.6826H57.129C57.5991 36.6826 57.9596 36.6011 58.2106 36.4382C58.4617 36.2747 58.5875 36.0467 58.5875 35.753C58.5875 35.729 58.6096 35.7167 58.6539 35.7167C58.6987 35.7167 58.7209 35.729 58.7209 35.753L58.7086 36.8538L58.7209 37.4411C58.7372 37.7183 58.7453 37.9381 58.7453 38.101C58.7453 38.1174 58.7209 38.1256 58.6725 38.1256C58.6236 38.1256 58.5997 38.1174 58.5997 38.101C58.5997 37.7669 58.4716 37.5038 58.2165 37.3127C57.9613 37.121 57.595 37.0249 57.1168 37.0249H56.1202V39.7891C56.1202 40.0253 56.1645 40.2005 56.2536 40.3148C56.3427 40.4291 56.4848 40.486 56.6794 40.486H57.0801C57.7121 40.486 58.2188 40.3558 58.5997 40.095C58.9801 39.8336 59.2596 39.4304 59.4379 38.8841Z" fill="white"/>
<path d="M70.2266 40.6817C70.2673 40.6817 70.2877 40.7063 70.2877 40.755C70.2877 40.8042 70.2673 40.8283 70.2266 40.8283C70.0647 40.8283 69.8136 40.8206 69.4735 40.8042C69.117 40.7878 68.8613 40.7796 68.7075 40.7796C68.5049 40.7796 68.2579 40.7878 67.9661 40.8042C67.6906 40.8206 67.4722 40.8283 67.3097 40.8283C67.2776 40.8283 67.2613 40.8042 67.2613 40.755C67.2613 40.7063 67.2776 40.6817 67.3097 40.6817C67.5205 40.6817 67.6725 40.6595 67.7657 40.6143C67.8589 40.5698 67.9055 40.4901 67.9055 40.3758C67.9055 40.2375 67.8246 40.0053 67.6626 39.6789L66.8361 38.0278H63.8464L63.3723 39.0922C63.2669 39.3284 63.2145 39.5488 63.2145 39.7521C63.2145 40.0458 63.3176 40.2744 63.5243 40.4373C63.7311 40.6003 64.0083 40.6817 64.3566 40.6817C64.3974 40.6817 64.4172 40.7063 64.4172 40.755C64.4172 40.8042 64.3974 40.8283 64.3566 40.8283C64.211 40.8283 64.0002 40.8206 63.7247 40.8042C63.4172 40.7878 63.1498 40.7796 62.9227 40.7796C62.7037 40.7796 62.4404 40.7878 62.1328 40.8042C61.8573 40.8206 61.6343 40.8283 61.4642 40.8283C61.4316 40.8283 61.4159 40.8042 61.4159 40.755C61.4159 40.7063 61.4316 40.6817 61.4642 40.6817C61.6914 40.6817 61.8812 40.6348 62.0356 40.5411C62.1894 40.4473 62.3431 40.2802 62.4975 40.0399C62.6512 39.799 62.8335 39.4427 63.0444 38.9697L65.6811 33.136C65.6974 33.1113 65.7341 33.099 65.7906 33.099C65.8559 33.099 65.892 33.1113 65.9001 33.136L68.9382 39.1531C69.2218 39.7322 69.4572 40.1314 69.6435 40.3517C69.8299 40.5715 70.0239 40.6817 70.2266 40.6817ZM64.0043 37.6855H66.6538L65.2559 34.8973L64.0043 37.6855Z" fill="white"/>
<path d="M78.1228 34.7502C78.1228 34.31 78.0238 33.9636 77.8252 33.711C77.6266 33.4577 77.3493 33.3317 76.9929 33.3317C76.9766 33.3317 76.9684 33.3071 76.9684 33.2585C76.9684 33.2092 76.9766 33.1846 76.9929 33.1846L77.5759 33.1969C77.884 33.2133 78.131 33.2215 78.3174 33.2215C78.4711 33.2215 78.6942 33.2133 78.986 33.1969L79.5446 33.1846C79.5609 33.1846 79.5691 33.2092 79.5691 33.2585C79.5691 33.3071 79.5609 33.3317 79.5446 33.3317C79.2289 33.3317 78.982 33.4577 78.8037 33.711C78.6255 33.9636 78.5364 34.31 78.5364 34.7502V38.1503C78.5364 38.7211 78.4106 39.2223 78.1595 39.6543C77.9085 40.0868 77.5538 40.4186 77.096 40.6513C76.6382 40.8834 76.1093 41 75.51 41C74.9106 41 74.3794 40.8857 73.9182 40.6571C73.4563 40.4291 73.0934 40.0968 72.8301 39.6607C72.5669 39.2246 72.4352 38.7129 72.4352 38.1256V34.1752C72.4352 33.9307 72.4131 33.7514 72.3682 33.6371C72.324 33.5234 72.243 33.4437 72.1254 33.3991C72.0077 33.354 71.8237 33.3317 71.5726 33.3317C71.5482 33.3317 71.5359 33.3071 71.5359 33.2585C71.5359 33.2092 71.5482 33.1846 71.5726 33.1846L72.2162 33.1969C72.589 33.2133 72.8849 33.2215 73.1039 33.2215C73.3468 33.2215 73.6549 33.2133 74.0271 33.1969L74.6474 33.1846C74.6712 33.1846 74.6835 33.2092 74.6835 33.2585C74.6835 33.3071 74.6712 33.3317 74.6474 33.3317C74.3957 33.3317 74.2117 33.3564 74.094 33.405C73.977 33.4537 73.8954 33.5375 73.8512 33.6559C73.8063 33.7743 73.7842 33.9554 73.7842 34.1998V37.6978C73.7842 38.6678 73.9746 39.3852 74.3556 39.85C74.7365 40.3148 75.2752 40.5475 75.9719 40.5475C76.6446 40.5475 77.1711 40.3412 77.552 39.9297C77.9324 39.5177 78.1228 38.9286 78.1228 38.1626V34.7502Z" fill="white"/>
</svg>
